<svg width="15" height="15" viewBox="0 0 15 15" fill="none" xmlns="http://www.w3.org/2000/svg">
<path d="M6.91288 6.0445C6.97355 6.02697 7.02587 5.98734 7.06 5.93398L7.75846 4.82951C7.93289 4.57416 8.29615 4.54138 8.51304 4.76167L10.2406 6.51556C10.4643 6.74271 10.4211 7.11925 10.1526 7.28999L9.06059 7.90816C8.99764 7.94398 8.95138 8.00267 8.93166 8.07204L8.38943 9.96999C8.25975 10.3846 7.74481 10.5218 7.42857 10.2261L6.23641 9.11172L5.07003 10.2848C4.97296 10.3824 4.81522 10.3824 4.71815 10.2848C4.56571 10.1316 4.58998 9.94636 4.74241 9.79315L5.85571 8.72298L4.80915 7.6147C4.47471 7.28389 4.61501 6.71374 5.06396 6.57654L6.91288 6.0445Z" fill="#AAAAAA"/>
<rect x="0.5" y="0.5" width="14" height="14" rx="1.5" stroke="#504A4A" stroke-dasharray="1 1"/>
</svg>
