<svg width="18" height="16" viewBox="0 0 18 16" fill="none" xmlns="http://www.w3.org/2000/svg">
<path d="M12.6844 12.6594C12.5824 12.4231 12.3026 12.3277 12.0814 12.4469L7.96243 14.6406C7.867 14.6905 7.75421 14.6211 7.75638 14.5127L7.79325 12.8241C7.79759 12.6139 7.62407 12.4404 7.41367 12.4469L7.34643 12.4491H7.34427C7.33776 12.4491 7.3139 12.4491 7.27703 12.4491C6.92565 12.4513 5.28154 12.3971 3.77841 11.6471C3.02577 11.2721 2.30999 10.7323 1.77642 9.94327C1.24284 9.1564 0.882787 8.11374 0.867604 6.68524C0.869773 6.63972 0.884956 6.27555 0.997744 5.75314C1.17343 4.94243 1.58555 3.76754 2.51822 2.81376C2.98456 2.33471 3.58103 1.90767 4.35971 1.59553C5.13188 1.28555 6.08624 1.08829 7.27486 1.08612C7.4679 1.08612 7.6566 0.97557 7.71517 0.791317C7.80843 0.492177 7.58719 0.219049 7.30305 0.219049C5.55049 0.219049 4.19269 0.613567 3.16025 1.22052C2.38591 1.67573 1.79594 2.25017 1.35563 2.84845C0.694083 3.74587 0.357887 4.69531 0.186535 5.42148C0.010845 6.14766 0 6.65273 0 6.67657V6.68958C0.0130141 8.26331 0.420788 9.49456 1.05631 10.431C1.53132 11.1333 2.12563 11.6666 2.75464 12.0676C3.69599 12.668 4.70892 12.978 5.54399 13.1406C6.10359 13.249 6.58077 13.2923 6.90829 13.3097C6.91263 13.3097 6.9148 13.3162 6.9148 13.3162L6.86491 15.6768C6.86058 15.9174 7.11652 16.0756 7.32908 15.9629L12.4631 13.2273C12.6648 13.1168 12.7755 12.8696 12.6844 12.6594Z" fill="#CDCDCD"/>
<path d="M12.9224 7.35928C12.6512 7.35928 12.4148 7.24006 12.2109 7.00378C12.007 6.7675 11.9073 6.3448 11.9073 5.73569C11.9073 5.28914 11.981 4.87728 12.1263 4.49794C12.2716 4.12076 12.4755 3.82162 12.7358 3.59618C12.9961 3.37291 13.2976 3.26019 13.6425 3.26019C13.7986 3.26019 13.9288 3.27103 14.0329 3.29054C14.137 3.31222 14.2107 3.33389 14.252 3.35991L14.009 5.9828C13.9678 6.38382 13.855 6.71331 13.6685 6.9691C13.482 7.22922 13.2347 7.35928 12.9224 7.35928ZM13.0308 10.6043C13.2347 10.6043 13.3952 10.5696 13.5145 10.4981C13.6338 10.4287 13.6945 10.3182 13.6945 10.1664C13.6945 10.0212 13.6446 9.91064 13.547 9.83911C13.4494 9.76757 13.2889 9.72205 13.0698 9.70688C11.9615 9.66569 11.1156 9.32103 10.5321 8.67723C9.94864 8.03126 9.65799 7.10132 9.65799 5.88309C9.65799 4.89029 9.82934 4.01888 10.1699 3.2732C10.5104 2.52752 11.0049 1.94875 11.6535 1.54122C12.302 1.1337 13.0677 0.927768 13.9526 0.927768C15.0046 0.927768 15.7833 1.23124 16.2908 1.84036C16.7984 2.44948 17.0521 3.31222 17.0521 4.43074C17.0521 4.99217 16.9936 5.51458 16.8765 5.99581C16.7593 6.47703 16.5815 6.87155 16.345 7.17719C16.1086 7.485 15.818 7.63674 15.4753 7.63674C15.2367 7.63674 15.0675 7.54787 14.9721 7.36795C14.8766 7.18803 14.8267 6.93225 14.8267 6.59842C14.8267 6.29061 14.8875 5.53409 15.0068 4.32669C15.0697 3.68072 15.1 3.27753 15.1 3.11713C15.1 2.95672 15.0653 2.83099 14.9981 2.74212C14.9309 2.65324 14.8159 2.57737 14.6554 2.51668C14.3431 2.41696 14.0416 2.36928 13.7487 2.36928C13.2022 2.36928 12.7206 2.52318 12.3042 2.83316C11.8877 3.14314 11.5667 3.56367 11.3433 4.09258C11.1199 4.62366 11.0071 5.21111 11.0071 5.85708C11.0071 6.399 11.0874 6.84771 11.2457 7.20754C11.404 7.56738 11.6144 7.82967 11.8791 7.99658C12.1415 8.16349 12.43 8.24586 12.7423 8.24586C13.0069 8.24586 13.2455 8.19384 13.4538 8.08979C13.662 7.98574 13.829 7.85134 13.9526 7.68443C14.0784 7.51752 14.1587 7.3376 14.1956 7.14685C14.1956 7.53703 14.2953 7.84701 14.4927 8.07461C14.6901 8.30439 15.0003 8.41711 15.421 8.41711C15.9633 8.41711 16.4275 8.23069 16.8157 7.86001C17.204 7.48934 17.4968 6.99511 17.6985 6.38165C17.8981 5.7682 18 5.10272 18 4.38305C18 3.38375 17.833 2.55786 17.4968 1.90106C17.1606 1.24642 16.6964 0.765192 16.1021 0.457381C15.5056 0.153905 14.8246 0 14.0546 0C12.9505 0 11.994 0.24278 11.1806 0.730509C10.3694 1.21607 9.74475 1.90539 9.31095 2.79414C8.87715 3.68289 8.65808 4.71904 8.65808 5.90043C8.65808 7.0493 8.86196 7.9749 9.27191 8.67506C9.68185 9.37522 10.2111 9.87162 10.8618 10.1664C11.5125 10.4612 12.2348 10.6043 13.0308 10.6043Z" fill="#696969"/>
</svg>
