<svg width="30" height="36" viewBox="0 0 30 36" fill="none" xmlns="http://www.w3.org/2000/svg">
<mask id="path-1-inside-1_928_11884" fill="white">
<path d="M17.9414 0C20.4701 0 22.8766 0.523848 25.0586 1.46777C24.7223 1.44734 24.3834 1.43653 24.042 1.43652C14.9256 1.43652 7.53517 8.82698 7.53516 17.9434C7.53516 27.0597 14.9256 34.4502 24.042 34.4502C24.3818 34.4502 24.719 34.4382 25.0537 34.418C22.8729 35.3606 20.4683 35.8838 17.9414 35.8838C8.03241 35.8837 8.80215e-05 27.8514 0 17.9424C0 8.03332 8.03236 8.38108e-05 17.9414 0Z"/>
</mask>
<path d="M17.9414 0C20.4701 0 22.8766 0.523848 25.0586 1.46777C24.7223 1.44734 24.3834 1.43653 24.042 1.43652C14.9256 1.43652 7.53517 8.82698 7.53516 17.9434C7.53516 27.0597 14.9256 34.4502 24.042 34.4502C24.3818 34.4502 24.719 34.4382 25.0537 34.418C22.8729 35.3606 20.4683 35.8838 17.9414 35.8838C8.03241 35.8837 8.80215e-05 27.8514 0 17.9424C0 8.03332 8.03236 8.38108e-05 17.9414 0Z" fill="url(#paint0_linear_928_11884)"/>
<path d="M17.9414 0V-0.5H17.9414L17.9414 0ZM25.0586 1.46777L25.0283 1.96685L25.2571 1.00887L25.0586 1.46777ZM24.042 1.43652L24.042 0.936523H24.042V1.43652ZM7.53516 17.9434H7.03516V17.9434H7.53516ZM24.042 34.4502V34.9502H24.042L24.042 34.4502ZM25.0537 34.418L25.2521 34.8769L25.0235 33.9189L25.0537 34.418ZM17.9414 35.8838L17.9414 36.3838H17.9414V35.8838ZM0 17.9424H-0.5V17.9424L0 17.9424ZM17.9414 0V0.5C20.4005 0.5 22.7395 1.00931 24.8601 1.92668L25.0586 1.46777L25.2571 1.00887C23.0137 0.0383808 20.5398 -0.5 17.9414 -0.5V0ZM25.0586 1.46777L25.0889 0.968694C24.743 0.947673 24.3939 0.936528 24.042 0.936523L24.042 1.43652L24.042 1.93652C24.3728 1.93653 24.7017 1.947 25.0283 1.96685L25.0586 1.46777ZM24.042 1.43652V0.936523C14.6495 0.936523 7.03517 8.55084 7.03516 17.9434H7.53516H8.03516C8.03517 9.10312 15.2018 1.93652 24.042 1.93652V1.43652ZM7.53516 17.9434H7.03516C7.03516 27.3359 14.6495 34.9502 24.042 34.9502V34.4502V33.9502C15.2017 33.9502 8.03516 26.7836 8.03516 17.9434H7.53516ZM24.042 34.4502L24.042 34.9502C24.3935 34.9502 24.7409 34.9378 25.0839 34.9171L25.0537 34.418L25.0235 33.9189C24.6971 33.9386 24.3701 33.9502 24.042 33.9502L24.042 34.4502ZM25.0537 34.418L24.8553 33.959C22.7359 34.8752 20.3987 35.3838 17.9414 35.3838V35.8838V36.3838C20.538 36.3838 23.0099 35.8461 25.2521 34.8769L25.0537 34.418ZM17.9414 35.8838L17.9414 35.3838C8.30856 35.3837 0.500086 27.5752 0.5 17.9424L0 17.9424L-0.5 17.9424C-0.49991 28.1275 7.75627 36.3837 17.9414 36.3838L17.9414 35.8838ZM0 17.9424H0.5C0.5 8.30943 8.30853 0.500081 17.9414 0.5L17.9414 0L17.9414 -0.5C7.75619 -0.499914 -0.5 7.75721 -0.5 17.9424H0Z" fill="url(#paint1_linear_928_11884)" mask="url(#path-1-inside-1_928_11884)"/>
<path d="M20.3792 16.26V10.4479C20.3792 10.026 20.2542 9.61361 20.0201 9.2627C19.7863 9.61363 19.6615 10.0259 19.6615 10.4476V16.26L19.618 16.376C19.3 17.2241 18.673 17.9205 17.8629 18.3256L17.6879 18.4131H12.3903C11.8624 18.4131 11.3418 18.536 10.8696 18.772C11.3418 19.0079 11.8624 19.1308 12.3902 19.1308H17.6879C18.5866 19.3554 19.3175 20.0075 19.6428 20.8749L19.6615 20.925V26.4024C19.6615 26.93 19.7843 27.4504 20.0201 27.9224C20.2562 27.4504 20.3792 26.9299 20.3792 26.4021V20.925L20.4352 20.8129C20.8552 19.973 21.6212 19.3585 22.5322 19.1308H27.8304C28.3579 19.1308 28.8782 19.0079 29.3499 18.772C28.8782 18.536 28.3579 18.4131 27.8304 18.4131H22.5322L22.1667 18.2303C21.4723 17.8831 20.9092 17.32 20.562 16.6255L20.3792 16.26Z" fill="url(#paint2_linear_928_11884)" stroke="white" stroke-width="0.05" stroke-linecap="round"/>
<defs>
<linearGradient id="paint0_linear_928_11884" x1="12.5512" y1="-0.108741" x2="12.5512" y2="36.1182" gradientUnits="userSpaceOnUse">
<stop stop-color="#D9D9D9"/>
<stop offset="1" stop-color="#76DBD6"/>
</linearGradient>
<linearGradient id="paint1_linear_928_11884" x1="12.5293" y1="0" x2="12.5293" y2="35.8838" gradientUnits="userSpaceOnUse">
<stop stop-color="#EEEEEE"/>
<stop offset="1" stop-color="white"/>
</linearGradient>
<linearGradient id="paint2_linear_928_11884" x1="20.1259" y1="9.20615" x2="20.1259" y2="28.0443" gradientUnits="userSpaceOnUse">
<stop stop-color="#D9D9D9"/>
<stop offset="1" stop-color="#76DBD6"/>
</linearGradient>
</defs>
</svg>
