<svg width="20" height="23" viewBox="0 0 20 23" fill="none" xmlns="http://www.w3.org/2000/svg">
<mask id="path-1-inside-1_64_5255" fill="white">
<path d="M13.8867 0.748735C14.491 0.877773 14.4449 1.73724 13.8795 1.98681C12.2883 2.68921 10.8982 3.88459 9.96213 5.50583C7.61585 9.56972 9.0107 14.768 13.0782 17.1165C14.7022 18.0541 16.5066 18.395 18.2377 18.208C18.852 18.1416 19.321 18.8625 18.8621 19.2761C15.4902 22.3155 10.4158 22.9912 6.26846 20.5968C1.11635 17.6222 -0.651569 11.0382 2.32009 5.89067C4.71213 1.74755 9.44439 -0.199712 13.8867 0.748735Z"/>
</mask>
<path d="M9.96213 5.50583L9.09612 5.00581L9.09611 5.00583L9.96213 5.50583ZM13.0782 17.1165L12.5782 17.9825L12.5782 17.9825L13.0782 17.1165ZM6.26846 20.5968L5.76846 21.4628L5.76848 21.4629L6.26846 20.5968ZM2.32009 5.89067L1.45407 5.39067L1.45405 5.39071L2.32009 5.89067ZM18.2377 18.208L18.1303 17.2138L18.2377 18.208ZM18.8621 19.2761L19.5317 20.0189L18.8621 19.2761ZM13.8795 1.98681L13.4757 1.07198C11.697 1.85715 10.1419 3.19454 9.09612 5.00581L9.96213 5.50583L10.8281 6.00586C11.6545 4.57463 12.8797 3.52127 14.2834 2.90164L13.8795 1.98681ZM9.96213 5.50583L9.09611 5.00583C6.47331 9.54865 8.03304 15.3583 12.5782 17.9825L13.0782 17.1165L13.5782 16.2504C9.98835 14.1778 8.75838 9.59079 10.8282 6.00583L9.96213 5.50583ZM13.0782 17.1165L12.5782 17.9825C14.3922 19.0298 16.4102 19.4112 18.3452 19.2022L18.2377 18.208L18.1303 17.2138C16.6029 17.3788 15.0123 17.0784 13.5782 16.2504L13.0782 17.1165ZM18.8621 19.2761L18.1926 18.5334C15.1333 21.2909 10.5298 21.9023 6.76844 19.7308L6.26846 20.5968L5.76848 21.4629C10.3019 24.0801 15.847 23.3402 19.5317 20.0189L18.8621 19.2761ZM6.26846 20.5968L6.76846 19.7308C2.09383 17.0319 0.491051 11.0591 3.18614 6.39063L2.32009 5.89067L1.45405 5.39071C-1.79419 11.0174 0.138863 18.2126 5.76846 21.4628L6.26846 20.5968ZM2.32009 5.89067L3.18612 6.39067C5.35469 2.6346 9.64638 0.86595 13.6779 1.72669L13.8867 0.748735L14.0955 -0.229224C9.24241 -1.26537 4.06957 0.860493 1.45407 5.39067L2.32009 5.89067ZM18.2377 18.208L18.3452 19.2022C18.2269 19.215 18.142 19.1537 18.0991 19.0836C18.0734 19.0414 18.0379 18.9573 18.0484 18.8379C18.0602 18.7031 18.1253 18.594 18.1926 18.5334L18.8621 19.2761L19.5317 20.0189C20.189 19.4264 20.1404 18.5883 19.8056 18.0406C19.4894 17.5231 18.8628 17.1346 18.1303 17.2138L18.2377 18.208ZM13.8795 1.98681L14.2834 2.90164C14.9576 2.60403 15.306 1.95412 15.3214 1.34794C15.3377 0.706308 14.9613 -0.0443509 14.0955 -0.229224L13.8867 0.748735L13.6779 1.72669C13.5891 1.70775 13.4783 1.64572 13.4008 1.53498C13.3321 1.43684 13.3208 1.34639 13.3221 1.2972C13.3242 1.21542 13.3669 1.12003 13.4757 1.07198L13.8795 1.98681Z" fill="#D9D9D9" mask="url(#path-1-inside-1_64_5255)"/>
</svg>
