<svg width="15" height="15" viewBox="0 0 15 15" fill="none" xmlns="http://www.w3.org/2000/svg">
<rect x="0.5" y="0.5" width="14" height="14" rx="1.5" stroke="#504A4A" stroke-dasharray="1 1"/>
<path d="M8.29077 8.96558C8.06275 9.01413 7.79853 9.04252 7.51659 9.04252C7.24389 9.04252 6.98737 9.01563 6.76474 8.97006C6.57755 8.93197 6.39344 9.04775 6.35416 9.22926C6.31487 9.41077 6.43427 9.58929 6.62146 9.62739C6.8957 9.68341 7.19767 9.71403 7.51659 9.71403C7.84552 9.71403 8.1575 9.68117 8.43944 9.62141C8.62663 9.58182 8.74449 9.40255 8.70367 9.22104C8.66284 9.04028 8.47796 8.92525 8.29077 8.96558Z" fill="#AAAAAA"/>
<path d="M8.18592 10.093C8.00797 10.1311 7.77533 10.1431 7.51881 10.1431C7.26768 10.1438 7.05276 10.1349 6.8802 10.099C6.69301 10.0609 6.5089 10.1767 6.46962 10.3582C6.42956 10.5397 6.54973 10.7182 6.73692 10.7563C6.99652 10.8094 7.25536 10.8146 7.51881 10.8153C7.79382 10.8146 8.0696 10.8056 8.33536 10.7496C8.52255 10.71 8.64041 10.5307 8.59958 10.3492C8.55799 10.1677 8.37311 10.0527 8.18592 10.093Z" fill="#AAAAAA"/>
<path d="M5.74634 8.47371C5.73787 8.46699 5.72862 8.46027 5.71938 8.4528C5.40585 8.20556 5.14856 7.89333 4.97062 7.53927C4.79267 7.18521 4.6933 6.78932 4.6933 6.36878C4.6933 5.62407 5.00605 4.95255 5.51447 4.46329C6.02289 3.97403 6.72312 3.67226 7.50039 3.67226C8.27765 3.67226 8.97711 3.97403 9.4863 4.46329C9.99472 4.95255 10.3075 5.62407 10.3075 6.36878C10.3075 6.7953 10.205 7.19642 10.0224 7.55421C9.83988 7.912 9.57643 8.22572 9.2552 8.47297C9.10499 8.58875 9.08033 8.80014 9.19974 8.94505C9.31914 9.0907 9.53714 9.11461 9.68659 8.99883C10.0864 8.69033 10.4145 8.29967 10.6433 7.8515C10.8721 7.40407 11.0008 6.89913 11 6.36804C11 5.43807 10.6071 4.59326 9.97392 3.98524C9.34148 3.37647 8.46484 3 7.50039 3C6.53593 3 5.65929 3.37647 5.02608 3.98524C4.39287 4.59401 4 5.43882 4 6.36878C4 6.89315 4.12479 7.39137 4.34819 7.83432C4.57082 8.27726 4.89127 8.66568 5.2826 8.97418C5.29339 8.98239 5.30417 8.99136 5.3165 9.00032C5.46671 9.11535 5.68471 9.09145 5.80335 8.94579C5.92198 8.80088 5.89656 8.58949 5.74634 8.47371Z" fill="#D9D9D9"/>
<path d="M7.35544 11.9999H7.73598C7.92702 11.9999 8.08263 11.8498 8.08263 11.6638C8.08263 11.4778 7.92702 11.3276 7.73598 11.3276H7.35544C7.16363 11.3276 7.00879 11.4778 7.00879 11.6638C7.00879 11.849 7.1644 11.9999 7.35544 11.9999Z" fill="#AAAAAA"/>
</svg>
