<svg width="36" height="38" viewBox="0 0 36 38" fill="none" xmlns="http://www.w3.org/2000/svg">
<path d="M17.0606 24.2023L18.2509 35.7082L19.4412 23.4087L26.186 34.518L22.2185 23.4087L30.9471 30.5504L24.2023 20.6314L34.1212 23.4087L24.599 19.0444L35.7082 17.8541L24.599 15.8703L34.9147 9.91896L24.2023 13.8865L30.1536 5.15786L21.4249 12.2995L24.2023 1.58703L19.4412 11.506L18.2509 0L17.0606 11.506L10.7125 1.58703L14.6801 11.506L5.55462 5.15786L12.6963 14.6801L1.19027 11.506L11.506 16.2671L0 17.8541L11.9027 19.0444L1.19027 25.7893L12.6963 21.4249L5.55462 30.5504L15.0768 23.4087L11.506 37.2953L17.0606 24.2023Z" fill="url(#paint0_linear_941_17143)"/>
<circle cx="17.8537" cy="18.2521" r="8.72868" fill="url(#paint1_linear_941_17143)"/>
<defs>
<linearGradient id="paint0_linear_941_17143" x1="17.8541" y1="0" x2="17.8541" y2="37.2953" gradientUnits="userSpaceOnUse">
<stop stop-color="#FBF0BA"/>
<stop offset="0.456731" stop-color="white"/>
<stop offset="1" stop-color="#84FF96"/>
</linearGradient>
<linearGradient id="paint1_linear_941_17143" x1="17.8537" y1="9.5234" x2="17.8537" y2="26.9808" gradientUnits="userSpaceOnUse">
<stop stop-color="#FBF0BA"/>
<stop offset="0.456731" stop-color="white"/>
<stop offset="1" stop-color="#ACC3E5"/>
</linearGradient>
</defs>
</svg>
