<svg width="15" height="20" viewBox="0 0 15 20" fill="none" xmlns="http://www.w3.org/2000/svg">
<g clip-path="url(#clip0_2_8314)">
<path d="M8.98104 13.1157C8.51331 13.2164 7.97131 13.2753 7.39297 13.2753C6.83359 13.2753 6.3074 13.2195 5.85073 13.125C5.46675 13.046 5.08909 13.2861 5.0085 13.6626C4.92791 14.0391 5.17284 14.4093 5.55682 14.4884C6.11936 14.6045 6.73878 14.6681 7.39297 14.6681C8.0677 14.6681 8.70767 14.5999 9.28601 14.476C9.66999 14.3938 9.91176 14.022 9.82801 13.6456C9.74426 13.2707 9.36502 13.0321 8.98104 13.1157Z" fill="#AAAAAA"/>
<path d="M8.76591 15.4551C8.40089 15.5341 7.92368 15.5589 7.39748 15.5589C6.88235 15.5604 6.44148 15.5418 6.08752 15.4675C5.70354 15.3885 5.32588 15.6286 5.24529 16.005C5.16313 16.3815 5.40963 16.7518 5.79361 16.8308C6.32613 16.9408 6.85706 16.9516 7.39748 16.9532C7.9616 16.9516 8.5273 16.933 9.07246 16.8168C9.45644 16.7347 9.6982 16.3629 9.61445 15.9865C9.52913 15.61 9.14989 15.3714 8.76591 15.4551Z" fill="#AAAAAA"/>
<path d="M3.76193 12.0963C3.74454 12.0823 3.72558 12.0684 3.70662 12.0529C3.06349 11.5401 2.53572 10.8925 2.1707 10.1582C1.80568 9.42385 1.60184 8.60276 1.60184 7.73054C1.60184 6.18596 2.24339 4.7932 3.2863 3.77846C4.32921 2.76371 5.76558 2.13782 7.35996 2.13782C8.95435 2.13782 10.3891 2.76371 11.4336 3.77846C12.4765 4.7932 13.1181 6.18596 13.1181 7.73054C13.1181 8.61515 12.9079 9.44709 12.5334 10.1892C12.1589 10.9312 11.6185 11.5819 10.9596 12.0947C10.6515 12.3348 10.6009 12.7733 10.8458 13.0738C11.0907 13.3759 11.5379 13.4255 11.8445 13.1854C12.6646 12.5455 13.3377 11.7353 13.807 10.8058C14.2764 9.87777 14.5402 8.83049 14.5387 7.72899C14.5387 5.8002 13.7328 4.04802 12.4339 2.78695C11.1366 1.52433 9.33833 0.743515 7.35996 0.743515C5.3816 0.743515 3.58337 1.52433 2.28447 2.78695C0.985572 4.04957 0.179688 5.80175 0.179688 7.73054C0.179688 8.8181 0.435674 9.85143 0.893923 10.7701C1.35059 11.6888 2.00794 12.4944 2.81066 13.1343C2.83279 13.1513 2.85491 13.1699 2.88019 13.1885C3.18832 13.4271 3.63551 13.3775 3.87886 13.0754C4.1222 12.7748 4.07006 12.3364 3.76193 12.0963Z" fill="#DCE0E8"/>
<path d="M7.06264 19.4102H7.84324C8.23512 19.4102 8.55431 19.0988 8.55431 18.7131C8.55431 18.3273 8.23512 18.0159 7.84324 18.0159H7.06264C6.66918 18.0159 6.35156 18.3273 6.35156 18.7131C6.35156 19.0973 6.67076 19.4102 7.06264 19.4102Z" fill="#AAAAAA"/>
</g>
<defs>
<clipPath id="clip0_2_8314">
<rect width="14.359" height="18.6667" fill="white" transform="translate(0.179688 0.743515)"/>
</clipPath>
</defs>
</svg>
