<svg width="31" height="27" viewBox="0 0 31 27" fill="none" xmlns="http://www.w3.org/2000/svg">
<path d="M25.8143 25.8327V24.6654H4.71567C3.28507 24.6654 2.1194 23.3813 2.1194 21.8054V5.19455C2.1194 3.61868 3.28507 2.33463 4.71567 2.33463H25.8143C27.2449 2.33463 28.4 3.61868 28.4106 5.19455V21.8054C28.4106 23.3813 27.2449 24.6537 25.8143 24.6654V25.8327V27C28.4212 27 30.53 24.677 30.53 21.8054V5.19455C30.53 2.32296 28.4212 0 25.8143 0H4.71567C2.10881 0 0 2.32296 0 5.19455V21.8054C0 24.677 2.10881 27 4.71567 27H25.8143V25.8327Z" fill="#D9D9D9"/>
<path d="M17.3502 17.5H16.7068C16.7068 18.103 16.4623 18.6404 16.0634 19.0403C15.6645 19.4401 15.1112 19.6891 14.4936 19.6891C13.8759 19.6891 13.329 19.4401 12.9237 19.0403C12.5248 18.6404 12.2803 18.0964 12.2803 17.5C12.2803 16.897 12.5248 16.3596 12.9237 15.9597C13.3226 15.5599 13.8759 15.3109 14.4936 15.3109C15.1112 15.3109 15.6581 15.5599 16.0634 15.9597C16.4623 16.3596 16.7068 16.9036 16.7068 17.5H17.3502H17.9936C17.9936 16.53 17.5947 15.6517 16.9642 15.0225C16.3336 14.3933 15.4586 14 14.4936 14C13.5349 14 12.6599 14.3867 12.023 15.0225C11.3925 15.6517 11 16.53 11 17.5C11 18.47 11.3989 19.3483 12.0294 19.9775C12.6599 20.6067 13.5349 21 14.5 21C15.4586 21 16.3336 20.6133 16.9706 19.9775C17.6011 19.3483 18 18.4635 18 17.5H17.3502Z" fill="#D9D9D9"/>
<path d="M5 10H25" stroke="#D9D9D9" stroke-width="2" stroke-linecap="round"/>
</svg>
