<svg width="15" height="19" viewBox="0 0 15 19" fill="none" xmlns="http://www.w3.org/2000/svg">
<mask id="path-1-inside-1_2_8539" fill="white">
<path d="M10.3793 1.09237C10.9889 1.19345 10.9554 2.05861 10.4054 2.34048C9.26851 2.92321 8.28091 3.82893 7.59469 5.01736C5.69519 8.30738 6.82464 12.5158 10.1176 14.417C11.3084 15.1045 12.6187 15.3956 13.8964 15.3318C14.5134 15.301 14.9743 16.0329 14.4969 16.4249C11.7725 18.6624 7.83983 19.1033 4.60376 17.2349C0.432733 14.8267 -0.998153 9.4963 1.40786 5.32897C3.27415 2.0966 6.89982 0.515502 10.3793 1.09237Z"/>
</mask>
<path d="M7.59469 5.01736L6.72869 4.51731L6.72866 4.51736L7.59469 5.01736ZM10.1176 14.417L9.61762 15.2831L9.61764 15.2831L10.1176 14.417ZM4.60376 17.2349L4.10375 18.1009L4.10376 18.1009L4.60376 17.2349ZM1.40786 5.32897L0.54184 4.82895L0.54183 4.82897L1.40786 5.32897ZM13.8964 15.3318L13.8465 14.333L13.8964 15.3318ZM14.4969 16.4249L13.8623 15.6522L14.4969 16.4249ZM10.4054 2.34048L9.94932 1.45056L10.4054 2.34048ZM10.4054 2.34048L9.94932 1.45056C8.64634 2.1184 7.51408 3.15716 6.72869 4.51731L7.59469 5.01736L8.46069 5.51741C9.04775 4.50071 9.89069 3.72801 10.8616 3.2304L10.4054 2.34048ZM7.59469 5.01736L6.72866 4.51736C4.55263 8.28635 5.84703 13.1061 9.61762 15.2831L10.1176 14.417L10.6176 13.551C7.80225 11.9256 6.83775 8.3284 8.46071 5.51736L7.59469 5.01736ZM10.1176 14.417L9.61764 15.2831C10.9801 16.0697 12.4822 16.4036 13.9462 16.3305L13.8964 15.3318L13.8465 14.333C12.7552 14.3875 11.6367 14.1393 10.6176 13.551L10.1176 14.417ZM14.4969 16.4249L13.8623 15.6522C11.4494 17.6338 7.96761 18.0223 5.10376 16.3689L4.60376 17.2349L4.10376 18.1009C7.71206 20.1842 12.0957 19.691 15.1316 17.1977L14.4969 16.4249ZM4.60376 17.2349L5.10377 16.3689C1.41028 14.2364 0.144443 9.51726 2.27388 5.82897L1.40786 5.32897L0.54183 4.82897C-2.14075 9.47533 -0.544816 15.417 4.10375 18.1009L4.60376 17.2349ZM1.40786 5.32897L2.27387 5.82899C3.92475 2.96971 7.13313 1.56783 10.2157 2.0789L10.3793 1.09237L10.5428 0.105836C6.6665 -0.53683 2.62355 1.22349 0.54184 4.82895L1.40786 5.32897ZM13.8964 15.3318L13.9462 16.3305C13.8437 16.3356 13.7783 16.2839 13.7426 16.2226C13.7199 16.1835 13.6832 16.0961 13.6979 15.9693C13.7146 15.8251 13.7893 15.7121 13.8623 15.6522L14.4969 16.4249L15.1316 17.1977C15.4432 16.9418 15.6394 16.5903 15.6846 16.1995C15.7279 15.8262 15.6269 15.4842 15.4715 15.217C15.1704 14.6994 14.566 14.2971 13.8465 14.333L13.8964 15.3318ZM10.4054 2.34048L10.8616 3.2304C11.5029 2.90168 11.8251 2.25085 11.8272 1.65212C11.8283 1.34305 11.7449 0.996329 11.521 0.694522C11.2865 0.378505 10.9409 0.17183 10.5428 0.105836L10.3793 1.09237L10.2157 2.0789C10.1225 2.06345 10.0013 2.00282 9.91482 1.88626C9.83888 1.78391 9.82706 1.69004 9.82722 1.64513C9.82747 1.57472 9.85792 1.49741 9.94932 1.45056L10.4054 2.34048Z" fill="#777777" mask="url(#path-1-inside-1_2_8539)"/>
</svg>
