<svg width="27" height="22" viewBox="0 0 27 22" fill="none" xmlns="http://www.w3.org/2000/svg">
<path d="M0 1.52381C0 0.682233 0.682233 0 1.52381 0H25.1429C25.9844 0 26.6667 0.682233 26.6667 1.52381C26.6667 2.36539 25.9844 3.04762 25.1429 3.04762H1.52381C0.682231 3.04762 0 2.36539 0 1.52381Z" fill="#A3A3A6"/>
<path d="M2.57061e-05 10.6666C2.57061e-05 9.82506 0.682259 9.14283 1.52384 9.14283H25.1429C25.9845 9.14283 26.6667 9.82506 26.6667 10.6666C26.6667 11.5082 25.9845 12.1904 25.1429 12.1904H1.52383C0.682257 12.1904 2.57061e-05 11.5082 2.57061e-05 10.6666Z" fill="#A3A3A6"/>
<path d="M2.57061e-05 19.8096C2.57061e-05 18.968 0.682259 18.2858 1.52384 18.2858H25.1429C25.9845 18.2858 26.6667 18.968 26.6667 19.8096C26.6667 20.6512 25.9845 21.3334 25.1429 21.3334H1.52383C0.682257 21.3334 2.57061e-05 20.6512 2.57061e-05 19.8096Z" fill="#A3A3A6"/>
</svg>
