<svg width="54" height="54" viewBox="0 0 54 54" fill="none" xmlns="http://www.w3.org/2000/svg">
<path d="M39.9831 13.2079L33.9549 19.7303M33.9549 19.7303L33.8215 15.105M33.9549 19.7303L38.5802 19.5969" stroke="#A3A3A6" stroke-width="1.76337"/>
<path d="M41.8466 38.3723L34.7715 33.0035M34.7715 33.0035L39.3622 32.4232M34.7715 33.0035L35.3518 37.5942" stroke="#A3A3A6" stroke-width="1.76337"/>
<path d="M13.9554 40.7304L19.9836 34.208M19.9836 34.208L20.117 38.8333M19.9836 34.208L15.3583 34.3414" stroke="#A3A3A6" stroke-width="1.76337"/>
<path d="M11.7716 15.0035L18.8467 20.3723M18.8467 20.3723L14.256 20.9526M18.8467 20.3723L18.2663 15.7816" stroke="#A3A3A6" stroke-width="1.76337"/>
<rect x="21.7725" y="22.9184" width="10" height="1.14286" rx="0.571429" fill="#A3A3A6"/>
<rect x="21.7725" y="26.3468" width="10" height="1.14286" rx="0.571429" fill="#A3A3A6"/>
<rect x="21.7725" y="29.7756" width="10" height="1.14286" rx="0.571429" fill="#A3A3A6"/>
</svg>
